<mxfile host="app.diagrams.net" agent="Mozilla/5.0 (Windows NT 10.0; Win64; x64) AppleWebKit/537.36 (KHTML, like Gecko) Chrome/130.0.0.0 Safari/537.36" version="24.8.3">
  <diagram name="Sayfa -1" id="u8lHyw4wC_yKANvGUdU7">
    <mxGraphModel dx="1434" dy="772" grid="1" gridSize="10" guides="1" tooltips="1" connect="1" arrows="1" fold="1" page="1" pageScale="1" pageWidth="827" pageHeight="1169" math="0" shadow="0">
      <root>
        <mxCell id="0" />
        <mxCell id="1" parent="0" />
        <mxCell id="0h8FD8Mc0-JRhZ6q5h_F-28" value="&lt;p style=&quot;margin:0px;margin-top:4px;text-align:center;&quot;&gt;&lt;b&gt;Course&lt;/b&gt;&lt;/p&gt;&lt;hr size=&quot;1&quot;&gt;&lt;p style=&quot;margin:0px;margin-left:4px;&quot;&gt;-CourseID&lt;/p&gt;&lt;p style=&quot;margin:0px;margin-left:4px;&quot;&gt;+CourseName&lt;/p&gt;&lt;p style=&quot;margin:0px;margin-left:4px;&quot;&gt;+CourseType&lt;/p&gt;&lt;p style=&quot;margin:0px;margin-left:4px;&quot;&gt;+CreditHourse&lt;/p&gt;&lt;p style=&quot;margin:0px;margin-left:4px;&quot;&gt;+Prerequisites&lt;/p&gt;&lt;p style=&quot;margin:0px;margin-left:4px;&quot;&gt;&lt;br&gt;&lt;/p&gt;&lt;hr size=&quot;1&quot;&gt;&lt;p style=&quot;margin:0px;margin-left:4px;&quot;&gt;-getcourseıd()&lt;/p&gt;&lt;p style=&quot;margin:0px;margin-left:4px;&quot;&gt;+getcoursename()&lt;/p&gt;&lt;p style=&quot;margin:0px;margin-left:4px;&quot;&gt;+getcoursetype()&lt;/p&gt;&lt;p style=&quot;margin:0px;margin-left:4px;&quot;&gt;+getcredithours()&lt;/p&gt;&lt;p style=&quot;margin:0px;margin-left:4px;&quot;&gt;+getprerequisities()&lt;/p&gt;" style="verticalAlign=top;align=left;overflow=fill;fontSize=12;fontFamily=Helvetica;html=1;whiteSpace=wrap;" parent="1" vertex="1">
          <mxGeometry x="320" y="30" width="160" height="250" as="geometry" />
        </mxCell>
        <mxCell id="0h8FD8Mc0-JRhZ6q5h_F-29" value="&lt;p style=&quot;margin:0px;margin-top:4px;text-align:center;&quot;&gt;&lt;b&gt;Department&lt;/b&gt;&lt;/p&gt;&lt;hr size=&quot;1&quot;&gt;&lt;p style=&quot;margin:0px;margin-left:4px;&quot;&gt;-DepartmenID&lt;/p&gt;&lt;p style=&quot;margin:0px;margin-left:4px;&quot;&gt;+DepartmentName&lt;/p&gt;&lt;p style=&quot;margin:0px;margin-left:4px;&quot;&gt;+HeadofDepartment&lt;/p&gt;&lt;p style=&quot;margin:0px;margin-left:4px;&quot;&gt;&lt;br&gt;&lt;/p&gt;&lt;hr size=&quot;1&quot;&gt;&lt;p style=&quot;margin:0px;margin-left:4px;&quot;&gt;-getdepartmentıd()&lt;/p&gt;&lt;p style=&quot;margin:0px;margin-left:4px;&quot;&gt;+getdepartmentname()&lt;/p&gt;&lt;p style=&quot;margin:0px;margin-left:4px;&quot;&gt;+getheadofdepartment()&lt;/p&gt;" style="verticalAlign=top;align=left;overflow=fill;fontSize=12;fontFamily=Helvetica;html=1;whiteSpace=wrap;" parent="1" vertex="1">
          <mxGeometry x="40" y="120" width="160" height="160" as="geometry" />
        </mxCell>
        <mxCell id="0h8FD8Mc0-JRhZ6q5h_F-30" value="&lt;p style=&quot;margin:0px;margin-top:4px;text-align:center;&quot;&gt;&lt;b&gt;Instructor&lt;/b&gt;&lt;/p&gt;&lt;hr size=&quot;1&quot;&gt;&lt;p style=&quot;margin:0px;margin-left:4px;&quot;&gt;-InstructorID&lt;/p&gt;&lt;p style=&quot;margin:0px;margin-left:4px;&quot;&gt;+InstructorName&lt;/p&gt;&lt;p style=&quot;margin:0px;margin-left:4px;&quot;&gt;+Departmant&lt;/p&gt;&lt;p style=&quot;margin:0px;margin-left:4px;&quot;&gt;+Availabity&lt;/p&gt;&lt;p style=&quot;margin:0px;margin-left:4px;&quot;&gt;&lt;br&gt;&lt;/p&gt;&lt;hr size=&quot;1&quot;&gt;&lt;p style=&quot;margin:0px;margin-left:4px;&quot;&gt;-getınstructorıd()&lt;/p&gt;&lt;p style=&quot;margin:0px;margin-left:4px;&quot;&gt;+getınstructorname()&lt;/p&gt;&lt;p style=&quot;margin:0px;margin-left:4px;&quot;&gt;+getdepartment()&lt;/p&gt;&lt;p style=&quot;margin:0px;margin-left:4px;&quot;&gt;+getavailabity()&lt;/p&gt;" style="verticalAlign=top;align=left;overflow=fill;fontSize=12;fontFamily=Helvetica;html=1;whiteSpace=wrap;" parent="1" vertex="1">
          <mxGeometry x="580" y="120" width="170" height="210" as="geometry" />
        </mxCell>
        <mxCell id="0h8FD8Mc0-JRhZ6q5h_F-31" value="&lt;p style=&quot;margin:0px;margin-top:4px;text-align:center;&quot;&gt;&lt;b&gt;Section&lt;/b&gt;&lt;/p&gt;&lt;hr size=&quot;1&quot;&gt;&lt;p style=&quot;margin:0px;margin-left:4px;&quot;&gt;-SectionID&lt;/p&gt;&lt;p style=&quot;margin:0px;margin-left:4px;&quot;&gt;-CourseID&lt;/p&gt;&lt;p style=&quot;margin:0px;margin-left:4px;&quot;&gt;+Room&lt;/p&gt;&lt;p style=&quot;margin:0px;margin-left:4px;&quot;&gt;+TımeSlot&lt;/p&gt;&lt;p style=&quot;margin:0px;margin-left:4px;&quot;&gt;+Capacity&lt;/p&gt;&lt;hr size=&quot;1&quot;&gt;&lt;p style=&quot;margin:0px;margin-left:4px;&quot;&gt;-getsectionid()&lt;/p&gt;&lt;p style=&quot;margin:0px;margin-left:4px;&quot;&gt;-getcourseid()&lt;/p&gt;&lt;p style=&quot;margin:0px;margin-left:4px;&quot;&gt;+getroom()&lt;/p&gt;&lt;p style=&quot;margin:0px;margin-left:4px;&quot;&gt;+gettimeslot()&lt;/p&gt;&lt;p style=&quot;margin:0px;margin-left:4px;&quot;&gt;+getcapacity()&lt;/p&gt;" style="verticalAlign=top;align=left;overflow=fill;fontSize=12;fontFamily=Helvetica;html=1;whiteSpace=wrap;" parent="1" vertex="1">
          <mxGeometry x="50" y="310" width="130" height="200" as="geometry" />
        </mxCell>
        <mxCell id="0h8FD8Mc0-JRhZ6q5h_F-32" value="&lt;p style=&quot;margin:0px;margin-top:4px;text-align:center;&quot;&gt;&lt;b&gt;Room&lt;/b&gt;&lt;/p&gt;&lt;hr size=&quot;1&quot;&gt;&lt;p style=&quot;margin:0px;margin-left:4px;&quot;&gt;-RoomID&lt;/p&gt;&lt;p style=&quot;margin:0px;margin-left:4px;&quot;&gt;+RoomType&lt;/p&gt;&lt;p style=&quot;margin:0px;margin-left:4px;&quot;&gt;+Capacity&lt;/p&gt;&lt;hr size=&quot;1&quot;&gt;&lt;p style=&quot;margin:0px;margin-left:4px;&quot;&gt;-getroomid()&lt;/p&gt;&lt;p style=&quot;margin:0px;margin-left:4px;&quot;&gt;+getroomtype()&lt;/p&gt;&lt;p style=&quot;margin:0px;margin-left:4px;&quot;&gt;+getcapacity()&lt;/p&gt;" style="verticalAlign=top;align=left;overflow=fill;fontSize=12;fontFamily=Helvetica;html=1;whiteSpace=wrap;" parent="1" vertex="1">
          <mxGeometry x="580" y="350" width="170" height="140" as="geometry" />
        </mxCell>
        <mxCell id="0h8FD8Mc0-JRhZ6q5h_F-33" value="&lt;p style=&quot;margin:0px;margin-top:4px;text-align:center;&quot;&gt;&lt;b&gt;TimeSlot&lt;/b&gt;&lt;/p&gt;&lt;hr size=&quot;1&quot;&gt;&lt;p style=&quot;margin:0px;margin-left:4px;&quot;&gt;-TimeSlotID&lt;/p&gt;&lt;p style=&quot;margin:0px;margin-left:4px;&quot;&gt;+Starttime&lt;/p&gt;&lt;p style=&quot;margin:0px;margin-left:4px;&quot;&gt;+Endtime&lt;/p&gt;&lt;p style=&quot;margin:0px;margin-left:4px;&quot;&gt;+DayofWeek&lt;/p&gt;&lt;hr size=&quot;1&quot;&gt;&lt;p style=&quot;margin:0px;margin-left:4px;&quot;&gt;-gettimeslotid()&lt;/p&gt;&lt;p style=&quot;margin:0px;margin-left:4px;&quot;&gt;+getstarttime()&lt;/p&gt;&lt;p style=&quot;margin:0px;margin-left:4px;&quot;&gt;+getendtime()&lt;/p&gt;&lt;p style=&quot;margin:0px;margin-left:4px;&quot;&gt;+getdayofweek()&lt;/p&gt;" style="verticalAlign=top;align=left;overflow=fill;fontSize=12;fontFamily=Helvetica;html=1;whiteSpace=wrap;" parent="1" vertex="1">
          <mxGeometry x="50" y="530" width="150" height="170" as="geometry" />
        </mxCell>
        <mxCell id="0h8FD8Mc0-JRhZ6q5h_F-34" value="&lt;p style=&quot;margin:0px;margin-top:4px;text-align:center;&quot;&gt;&lt;b&gt;Coordinator&lt;/b&gt;&lt;/p&gt;&lt;hr size=&quot;1&quot;&gt;&lt;p style=&quot;margin:0px;margin-left:4px;&quot;&gt;-CoordinatorID&lt;/p&gt;&lt;p style=&quot;margin:0px;margin-left:4px;&quot;&gt;+CoordinatorName&lt;/p&gt;&lt;p style=&quot;margin:0px;margin-left:4px;&quot;&gt;+Department&lt;/p&gt;&lt;hr size=&quot;1&quot;&gt;&lt;p style=&quot;margin:0px;margin-left:4px;&quot;&gt;-getcoordinatorid()&lt;/p&gt;&lt;p style=&quot;margin:0px;margin-left:4px;&quot;&gt;+getcoordinatorname()&lt;/p&gt;&lt;p style=&quot;margin:0px;margin-left:4px;&quot;&gt;+getdepartment()&lt;/p&gt;&lt;p style=&quot;margin:0px;margin-left:4px;&quot;&gt;&lt;br&gt;&lt;/p&gt;" style="verticalAlign=top;align=left;overflow=fill;fontSize=12;fontFamily=Helvetica;html=1;whiteSpace=wrap;" parent="1" vertex="1">
          <mxGeometry x="600" y="540" width="160" height="150" as="geometry" />
        </mxCell>
        <mxCell id="0h8FD8Mc0-JRhZ6q5h_F-35" value="" style="edgeStyle=elbowEdgeStyle;html=1;endArrow=none;elbow=vertical;rounded=0;exitX=0;exitY=0.68;exitDx=0;exitDy=0;entryX=1;entryY=0.5;entryDx=0;entryDy=0;exitPerimeter=0;" parent="1" source="0h8FD8Mc0-JRhZ6q5h_F-28" target="0h8FD8Mc0-JRhZ6q5h_F-29" edge="1">
          <mxGeometry width="160" relative="1" as="geometry">
            <mxPoint x="340" y="360" as="sourcePoint" />
            <mxPoint x="500" y="360" as="targetPoint" />
          </mxGeometry>
        </mxCell>
        <mxCell id="0h8FD8Mc0-JRhZ6q5h_F-36" value="*" style="text;html=1;align=center;verticalAlign=middle;whiteSpace=wrap;rounded=0;" parent="1" vertex="1">
          <mxGeometry x="180" y="200" width="60" height="30" as="geometry" />
        </mxCell>
        <mxCell id="0h8FD8Mc0-JRhZ6q5h_F-37" value="*" style="text;html=1;align=center;verticalAlign=middle;whiteSpace=wrap;rounded=0;" parent="1" vertex="1">
          <mxGeometry x="280" y="200" width="60" height="30" as="geometry" />
        </mxCell>
        <mxCell id="0h8FD8Mc0-JRhZ6q5h_F-38" value="" style="edgeStyle=elbowEdgeStyle;html=1;endArrow=none;elbow=vertical;rounded=0;exitX=0.5;exitY=1;exitDx=0;exitDy=0;entryX=1;entryY=0.5;entryDx=0;entryDy=0;" parent="1" source="0h8FD8Mc0-JRhZ6q5h_F-28" target="0h8FD8Mc0-JRhZ6q5h_F-31" edge="1">
          <mxGeometry width="160" relative="1" as="geometry">
            <mxPoint x="380" y="390" as="sourcePoint" />
            <mxPoint x="540" y="390" as="targetPoint" />
            <Array as="points">
              <mxPoint x="280" y="410" />
            </Array>
          </mxGeometry>
        </mxCell>
        <mxCell id="0h8FD8Mc0-JRhZ6q5h_F-39" value="1" style="text;html=1;align=center;verticalAlign=middle;whiteSpace=wrap;rounded=0;" parent="1" vertex="1">
          <mxGeometry x="354" y="280" width="60" height="30" as="geometry" />
        </mxCell>
        <mxCell id="0h8FD8Mc0-JRhZ6q5h_F-40" value="*" style="text;html=1;align=center;verticalAlign=middle;whiteSpace=wrap;rounded=0;" parent="1" vertex="1">
          <mxGeometry x="160" y="390" width="60" height="30" as="geometry" />
        </mxCell>
        <mxCell id="0h8FD8Mc0-JRhZ6q5h_F-43" value="" style="edgeStyle=elbowEdgeStyle;html=1;endArrow=none;elbow=vertical;rounded=0;exitX=1;exitY=0.75;exitDx=0;exitDy=0;entryX=0;entryY=0.5;entryDx=0;entryDy=0;" parent="1" edge="1">
          <mxGeometry width="160" relative="1" as="geometry">
            <mxPoint x="480" y="210" as="sourcePoint" />
            <mxPoint x="580" y="217.5" as="targetPoint" />
          </mxGeometry>
        </mxCell>
        <mxCell id="0h8FD8Mc0-JRhZ6q5h_F-44" value="1" style="text;html=1;align=center;verticalAlign=middle;whiteSpace=wrap;rounded=0;" parent="1" vertex="1">
          <mxGeometry x="540" y="220" width="60" height="30" as="geometry" />
        </mxCell>
        <mxCell id="0h8FD8Mc0-JRhZ6q5h_F-45" value="*" style="text;html=1;align=center;verticalAlign=middle;whiteSpace=wrap;rounded=0;" parent="1" vertex="1">
          <mxGeometry x="460" y="220" width="60" height="30" as="geometry" />
        </mxCell>
        <mxCell id="0h8FD8Mc0-JRhZ6q5h_F-49" value="*" style="text;html=1;align=center;verticalAlign=middle;whiteSpace=wrap;rounded=0;" parent="1" vertex="1">
          <mxGeometry x="180" y="280" width="60" height="30" as="geometry" />
        </mxCell>
        <mxCell id="0h8FD8Mc0-JRhZ6q5h_F-50" value="*" style="text;html=1;align=center;verticalAlign=middle;whiteSpace=wrap;rounded=0;" parent="1" vertex="1">
          <mxGeometry x="560" y="585" width="60" height="30" as="geometry" />
        </mxCell>
        <mxCell id="0h8FD8Mc0-JRhZ6q5h_F-57" value="" style="edgeStyle=elbowEdgeStyle;html=1;endArrow=none;elbow=vertical;rounded=0;exitX=1;exitY=0.75;exitDx=0;exitDy=0;entryX=0;entryY=0.5;entryDx=0;entryDy=0;" parent="1" source="0h8FD8Mc0-JRhZ6q5h_F-29" target="0h8FD8Mc0-JRhZ6q5h_F-34" edge="1">
          <mxGeometry width="160" relative="1" as="geometry">
            <mxPoint x="440" y="570" as="sourcePoint" />
            <mxPoint x="600" y="570" as="targetPoint" />
          </mxGeometry>
        </mxCell>
        <mxCell id="0h8FD8Mc0-JRhZ6q5h_F-59" value="" style="edgeStyle=elbowEdgeStyle;html=1;endArrow=none;elbow=vertical;rounded=0;exitX=1.007;exitY=0.559;exitDx=0;exitDy=0;exitPerimeter=0;entryX=1;entryY=0.75;entryDx=0;entryDy=0;" parent="1" source="0h8FD8Mc0-JRhZ6q5h_F-33" target="0h8FD8Mc0-JRhZ6q5h_F-31" edge="1">
          <mxGeometry width="160" relative="1" as="geometry">
            <mxPoint x="350" y="640" as="sourcePoint" />
            <mxPoint x="510" y="640" as="targetPoint" />
            <Array as="points">
              <mxPoint x="290" y="540" />
            </Array>
          </mxGeometry>
        </mxCell>
        <mxCell id="0h8FD8Mc0-JRhZ6q5h_F-60" value="1" style="text;html=1;align=center;verticalAlign=middle;whiteSpace=wrap;rounded=0;" parent="1" vertex="1">
          <mxGeometry x="180" y="630" width="60" height="30" as="geometry" />
        </mxCell>
        <mxCell id="0h8FD8Mc0-JRhZ6q5h_F-62" value="*" style="text;html=1;align=center;verticalAlign=middle;whiteSpace=wrap;rounded=0;" parent="1" vertex="1">
          <mxGeometry x="160" y="460" width="60" height="30" as="geometry" />
        </mxCell>
        <mxCell id="0h8FD8Mc0-JRhZ6q5h_F-63" value="" style="edgeStyle=elbowEdgeStyle;html=1;endArrow=none;elbow=vertical;rounded=0;entryX=0;entryY=0.5;entryDx=0;entryDy=0;exitX=0.75;exitY=1;exitDx=0;exitDy=0;" parent="1" source="0h8FD8Mc0-JRhZ6q5h_F-28" target="0h8FD8Mc0-JRhZ6q5h_F-32" edge="1">
          <mxGeometry width="160" relative="1" as="geometry">
            <mxPoint x="400" y="490" as="sourcePoint" />
            <mxPoint x="560" y="490" as="targetPoint" />
            <Array as="points">
              <mxPoint x="520" y="390" />
            </Array>
          </mxGeometry>
        </mxCell>
        <mxCell id="0h8FD8Mc0-JRhZ6q5h_F-64" value="1" style="text;html=1;align=center;verticalAlign=middle;whiteSpace=wrap;rounded=0;" parent="1" vertex="1">
          <mxGeometry x="540" y="370" width="60" height="30" as="geometry" />
        </mxCell>
        <mxCell id="0h8FD8Mc0-JRhZ6q5h_F-65" value="*" style="text;html=1;align=center;verticalAlign=middle;whiteSpace=wrap;rounded=0;" parent="1" vertex="1">
          <mxGeometry x="420" y="280" width="60" height="30" as="geometry" />
        </mxCell>
      </root>
    </mxGraphModel>
  </diagram>
</mxfile>
